<?xml version="1.0" encoding="iso-8859-1"?>
<!-- Uploaded to: SVG Repo, www.svgrepo.com, Generator: SVG Repo Mixer Tools -->
<!DOCTYPE svg PUBLIC "-//W3C//DTD SVG 1.1//EN" "http://www.w3.org/Graphics/SVG/1.1/DTD/svg11.dtd">
<svg fill="#000000" version="1.1" id="Capa_1" xmlns="http://www.w3.org/2000/svg" xmlns:xlink="http://www.w3.org/1999/xlink" 
	 width="800px" height="800px" viewBox="0 0 45.918 45.918"
	 xml:space="preserve">
<g>
	<path d="M35.479,16.237c-2.556,0-10.138,0.014-10.138,0.014c0.324-1.835,1.108-3.118,2.845-3.873
		c1.145-0.498,1.672-1.832,1.174-2.977c-0.5-1.148-1.836-1.673-2.979-1.175c-3.898,1.694-5.213,4.823-5.614,8.03
		c0,0-8.012,0.017-10.814,0.017C4.354,16.274,0,21.457,0,27.071C0,33.034,4.852,37.88,10.813,37.88c4.183,0,7.655-1.886,9.449-5.067
		h5.363c1.814,3.251,5.32,5.067,9.479,5.067c5.979,0,10.814-4.762,10.814-10.769C45.919,21.347,41.266,16.237,35.479,16.237z
		 M10.71,31.208c-2.507,0-4.539-2.033-4.539-4.54c0-2.508,2.032-4.54,4.539-4.54s4.539,2.032,4.539,4.54
		C15.249,29.175,13.217,31.208,10.71,31.208z M38.73,27.551c0.707,0.708,0.707,1.854,0,2.561c-0.354,0.354-0.817,0.53-1.279,0.53
		c-0.465,0-0.928-0.176-1.281-0.53l-0.883-0.883l-0.885,0.883c-0.354,0.354-0.816,0.53-1.279,0.53c-0.464,0-0.926-0.176-1.28-0.53
		c-0.706-0.707-0.706-1.853,0-2.561l0.884-0.883l-0.884-0.884c-0.706-0.707-0.706-1.853,0-2.56c0.707-0.708,1.854-0.708,2.56,0
		l0.886,0.883l0.883-0.883c0.709-0.708,1.853-0.708,2.562,0c0.707,0.707,0.707,1.853,0,2.56l-0.883,0.884L38.73,27.551z"/>
</g>
</svg>