<?xml version="1.0" encoding="utf-8"?>
<!-- Generator: Adobe Illustrator 27.5.0, SVG Export Plug-In . SVG Version: 6.00 Build 0)  -->
<svg version="1.1" id="Layer_1" xmlns="http://www.w3.org/2000/svg" xmlns:xlink="http://www.w3.org/1999/xlink" x="0px" y="0px"
	 viewBox="0 0 512 512" style="enable-background:new 0 0 512 512;" xml:space="preserve">
<g>
	<path d="M480,358.4V119.46L275.52,0v91.74l80.1,46.91c3.17,2.14,3.17,6.4,0,7.49l-94.88,55.46c-3.17,2.14-6.3,1.06-8.42,0
		l-94.88-55.46c-3.17-1.09-3.17-6.4,0-7.49l80.13-46.91V0L32,119.46V358.4v-1.06v1.06l78.02-45.86v-93.89c0-3.2,4.19-5.31,6.3-4.26
		l94.88,55.46c3.17,2.14,4.22,4.29,4.22,7.49v110.91c0,3.2-4.22,5.34-6.34,4.29l-80.1-46.94l-78.02,45.86L255.46,512l204.51-119.46
		l-78.02-45.89l-80.06,46.94c-3.17,2.14-6.34,0-6.34-4.26V278.4c0-3.2,2.11-6.4,4.22-7.46l94.88-55.49c3.17-2.11,6.3,0,6.3,4.29
		v93.86L480,358.4z"/>
</g>
</svg>
