<?xml version="1.0" encoding="UTF-8"?>
<!-- Created with Inkscape (http://www.inkscape.org/) -->
<svg width="200mm" height="200mm" version="1.1" viewBox="0 0 200 200" xml:space="preserve" xmlns="http://www.w3.org/2000/svg"><path transform="matrix(.1576 0 0 .15625 109.65 10)" d="m256 0c-140.3 0-253.8 114.6-253.8 256s113.5 256 253.8 256c140.2 0 253.8-114.6 253.8-256s-113.6-256-253.8-256zm0 11.3c64.8 0 125.7 25.5 171.6 71.7 45.7 46 71.2 108.3 71.1 173.1 0 65.3-25.3 126.8-71.1 173.1-45.3 45.8-107.1 71.6-171.6 71.6-64.5 0.1-126.3-25.7-171.6-71.7-45.7-46-71.3-108.3-71.2-173.1 0-65.3 25.3-126.8 71.1-173.1 45.3-46 107.2-71.8 171.7-71.6zm-12.7 90c-41.3 11.1-79.6 32.3-130.6 90.8-51 58.6-41.4 106.9-41.4 106.9s14.1-33.3 47.9-68.3c16.1-16.6 28-22.2 36.3-22.2 7.3-0.4 13.5 5.5 13.5 12.8v118.8c0 11.8-7.6 14.3-14.6 14.2-5.9-0.1-11.4-2.2-11.4-2.2 34.8 50.5 117.9 57.6 117.9 57.6l36.5-39 0.8 0.8 33.4 28.5c61.2-36.3 90.7-103.7 90.7-103.7-27.3 28.8-44.7 35.6-55 35.6-9.2-0.1-12.8-5.4-12.8-5.4-0.5-2.5-1.3-38.7-1.7-74.8-0.3-37.4 0-74.9 1.8-75 10.6-19.8 44.3-59.8 44.3-59.8-62.9 12.4-97.2 53.7-97.2 53.7-10.2-8-30.8-6.7-30.8-6.7 9.7 5.3 19.3 20.8 19.3 33.7v126.3s-21.1 18.6-37.3 18.6c-9.7 0-15.6-5.3-18.8-9.6-1.3-1.7-2.3-3.5-3.2-5.5v-156c-2.3 1.7-5 2.6-7.7 2.7-3.5 0-7.1-1.7-9.5-6.8-1.8-3.8-3-9.6-3-18 0.1-28.9 32.6-48 32.6-48z"/><path transform="matrix(.17857 0 0 .15625 4.2857 10)" d="m480 358.4v-238.94l-204.48-119.46v91.74l80.1 46.91c3.17 2.14 3.17 6.4 0 7.49l-94.88 55.46c-3.17 2.14-6.3 1.06-8.42 0l-94.88-55.46c-3.17-1.09-3.17-6.4 0-7.49l80.13-46.91v-91.74l-205.57 119.46v238.94-1.06 1.06l78.02-45.86v-93.89c0-3.2 4.19-5.31 6.3-4.26l94.88 55.46c3.17 2.14 4.22 4.29 4.22 7.49v110.91c0 3.2-4.22 5.34-6.34 4.29l-80.1-46.94-78.02 45.86 204.5 120.54 204.51-119.46-78.02-45.89-80.06 46.94c-3.17 2.14-6.34 0-6.34-4.26v-110.93c0-3.2 2.11-6.4 4.22-7.46l94.88-55.49c3.17-2.11 6.3 0 6.3 4.29v93.86z"/><path transform="matrix(2.4759 0 0 2.4759 110 107.73)" d="m12.745 0.917c-1.458 0.328-2.906 0.781-4.266 1.464 0.031 1.198 0.109 2.344 0.266 3.505-0.526 0.339-1.078 0.63-1.568 1.026-0.5 0.38-1.01 0.75-1.464 1.198-0.906-0.594-1.859-1.156-2.849-1.651-1.063 1.141-2.052 2.375-2.865 3.755 0.609 0.99 1.25 1.911 1.938 2.792h0.016v8.474c0.016 0 0.031 0 0.047 5e-3l5.198 0.5c0.271 0.026 0.484 0.245 0.5 0.521l0.161 2.292 4.531 0.323 0.313-2.115c0.042-0.276 0.276-0.479 0.552-0.479h5.484c0.276 0 0.51 0.203 0.552 0.479l0.313 2.115 4.531-0.323 0.161-2.292c0.016-0.276 0.229-0.495 0.505-0.521l5.193-0.5c0.016 0 0.031-5e-3 0.047-5e-3v-8.474h0.021c0.688-0.875 1.323-1.802 1.932-2.792-0.807-1.38-1.802-2.615-2.865-3.755-0.984 0.495-1.943 1.057-2.849 1.651-0.453-0.448-0.958-0.818-1.458-1.198-0.495-0.396-1.047-0.688-1.573-1.026 0.156-1.161 0.234-2.307 0.266-3.505-1.354-0.682-2.802-1.135-4.266-1.464-0.583 0.984-1.115 2.047-1.578 3.083-0.552-0.089-1.109-0.125-1.661-0.13h-0.026c-0.552 5e-3 -1.109 0.042-1.661 0.13-0.464-1.036-0.995-2.099-1.583-3.083zm-4.11 12.406c1.729 0 3.13 1.406 3.13 3.135s-1.401 3.13-3.13 3.13-3.13-1.401-3.13-3.13 1.401-3.135 3.13-3.135zm14.73 0c1.729 0 3.13 1.406 3.13 3.135s-1.401 3.13-3.13 3.13-3.13-1.401-3.13-3.13 1.401-3.135 3.13-3.135zm-14.433 1.245c-1.146 0-2.078 0.927-2.078 2.078 0 1.146 0.932 2.073 2.078 2.073 1.151 0 2.083-0.927 2.083-2.073 0-1.151-0.932-2.078-2.083-2.078zm14.131 0c-1.146 0-2.078 0.927-2.078 2.078 0 1.146 0.932 2.073 2.078 2.073 1.151 0 2.078-0.927 2.078-2.073 0-1.151-0.927-2.078-2.078-2.078zm-7.063 0.604c0.557 0 1.01 0.406 1.01 0.911v2.885c0 0.505-0.453 0.917-1.01 0.917s-1.01-0.411-1.01-0.917v-2.885c0-0.505 0.453-0.911 1.01-0.911zm-14.052 7.427c0 0.505 5e-3 1.052 5e-3 1.161 0 4.938 6.26 7.307 14.036 7.333h0.021c7.776-0.026 14.031-2.396 14.031-7.333 0-0.109 5e-3 -0.656 0.01-1.161l-4.672 0.453-0.161 2.307c-0.021 0.276-0.24 0.5-0.516 0.516l-5.578 0.396c-0.271 0-0.51-0.198-0.552-0.474l-0.318-2.156h-4.516l-0.318 2.156c-0.042 0.286-0.297 0.495-0.594 0.474l-5.531-0.396c-0.276-0.021-0.5-0.24-0.521-0.516l-0.156-2.307-4.672-0.448z"/><path transform="matrix(4.1866 0 0 3.3333 -.23923 105)" d="m10.365 0h2e-3zm0 0c-7e-3 4e-3 -2e-3 0.066 0.018 0.143 0.19 0.787 0.395 1.67 0.395 1.7 0 0.023-0.242 0.247-0.538 0.5s-0.628 0.552-0.735 0.663l-0.175 0.182h-0.247c-1.53-4e-3 -3.06 0.014-4.588-0.01-0.578-0.01-0.855 0.407-0.855 0.85 7e-3 6.384 7e-3 12.766 7e-3 19.15 0 0.542 0.283 0.822 0.828 0.822h15.06c0.542 0 0.825-0.28 0.825-0.825v-19.15c0-0.56-0.276-0.838-0.83-0.838-1.632 0-3.264 2e-3 -4.896-6e-3h-0.208l-0.546-0.532c-0.94-0.915-1.62-1.455-2.762-2.18a17.17 17.17 0 0 0-0.752-0.469zm0.955 1.35c0.03-4e-3 0.232 0.125 0.47 0.3a16.989 16.989 0 0 1 2.497 2.31h2e-3c0.465 0.52 0.903 1.057 1.268 1.6 0.357 0.53 0.935 1.546 0.935 1.64 0 0.03 0.017 0.052 0.037 0.052s0.083-0.168 0.14-0.374c0.127-0.45 0.126-0.448 0.388 0.403 0.38 1.238 0.51 2.106 0.51 3.38 0 0.992-0.047 1.402-0.23 2.12-0.053 0.205-0.066 0.318-0.035 0.318 0.026 0 0.184-0.038 0.352-0.086 0.167-0.048 0.31-0.08 0.318-0.073 0.028 0.027-0.394 0.753-0.692 1.19-1.246 1.828-2.718 2.91-4.358 3.206-0.917 0.165-1.763 0.1-2.61-0.198-0.45-0.158-0.813-0.348-1.398-0.733-1.25-0.82-2.206-2.292-2.68-4.12-0.214-0.82-0.378-2.076-0.378-2.895v-0.39l0.277 0.415c0.403 0.603 0.89 1.217 0.93 1.172 6e-3 -0.01-0.104-0.224-0.247-0.478-0.302-0.536-0.303-0.53-0.08-1.39 0.362-1.406 1.112-2.862 2.108-4.098 0.143-0.178 0.395-0.43 0.614-0.663 0.603-0.644 1.29-1.32 1.342-1.27 0.01 0.01-0.01 0.126-0.045 0.257-0.134 0.492-0.33 1.332-0.313 1.348 4e-3 4e-3 0.126-0.216 0.197-0.336 0.072-0.124 0.096-0.15 0.203-0.344 0.21-0.38 0.39-0.7 0.395-0.706 6e-3 -7e-3 0.132 0.112 0.28 0.264 0.222 0.225 0.27 0.256 0.25 0.167-0.014-0.06-0.123-0.522-0.245-1.028-0.12-0.506-0.215-0.938-0.207-0.96 0-2e-3 2e-3 -3e-3 4e-3 -3e-3zm4.08 2.59h3.71c0.372 0 0.49 0.114 0.49 0.482v13.9c0 0.36-0.12 0.457-0.558 0.457h-12.622c-0.52 0-1.04 2e-3 -1.56 0-0.33-3e-3 -0.453-0.126-0.453-0.448v-13.921c0-0.343 0.12-0.467 0.46-0.467 1.17-2e-3 2.342 0 3.513 0 0.048 0 0.097 5e-3 0.116 6e-3h0.1l-7e-3 6e-3 -0.138 0.165c-0.948 1.143-1.77 2.63-2.157 3.912-0.053 0.176-0.102 0.32-0.11 0.32-6e-3 0-0.207-0.29-0.443-0.64-0.237-0.352-0.448-0.652-0.47-0.665-0.074-0.046-0.01 3.277 0.075 3.897 0.305 2.222 1.053 3.926 2.292 5.214 0.62 0.646 1.705 1.31 2.633 1.612 1.36 0.444 2.87 0.33 4.27-0.32 1.37-0.638 2.723-1.993 3.706-3.713 0.366-0.642 0.934-1.742 0.91-1.766-0.01-0.01-0.255 0.05-0.542 0.132a5.99 5.99 0 0 1-0.533 0.14 1.427 1.427 0 0 1 0.033-0.292c0.09-0.534 0.103-1.682 0.027-2.396-0.134-1.262-0.344-2.09-0.93-3.663-0.467-1.258-0.473-1.274-0.5-1.274-0.014 0-0.092 0.238-0.173 0.528-0.082 0.29-0.154 0.526-0.16 0.526a0.831 0.831 0 0 1-0.114-0.165 21.09 21.09 0 0 0-0.972-1.34l-0.174-0.21h-4e-3 0.047c0.083-5e-3 0.158-0.013 0.234-0.013zm-3.6 0.71-0.032 0.234c-0.027 0.2-0.205 0.86-0.31 1.157-0.048 0.132 0.26-0.17 0.433-0.426 0.08-0.115 0.152-0.21 0.165-0.21 0.014 0 0.17 0.147 0.35 0.327s0.333 0.32 0.34 0.313c0.03-0.03-0.21-0.515-0.377-0.76a3.624 3.624 0 0 0-0.37-0.445zm-2.48 1.934-0.132 0.125c-0.178 0.17-0.485 0.64-0.63 0.96-0.15 0.332-0.33 0.85-0.328 0.94 0 0.04 0.072-0.06 0.158-0.222 0.155-0.29 0.603-0.872 0.67-0.872 0.02 0 0.06 0.053 0.09 0.12 0.06 0.132 0.36 0.552 0.378 0.53a1.875 1.875 0 0 0-0.045-0.32c-0.03-0.17-0.07-0.465-0.085-0.66a6.93 6.93 0 0 0-0.053-0.476zm5.453 8e-3c-0.02 0-0.038 0.113-0.04 0.252 0 0.24-0.097 1.002-0.157 1.242-0.026 0.107-0.023 0.107 0.088-0.02 0.063-0.074 0.166-0.22 0.23-0.33 0.065-0.11 0.123-0.207 0.132-0.217 0.054-0.063 0.71 0.816 0.786 1.052 0.017 0.052 0.04 0.083 0.053 0.07 0.03-0.03-0.188-0.687-0.323-0.975-0.197-0.42-0.664-1.074-0.768-1.074zm-2.63 1.1h2e-3zm0 0c-0.04 6e-3 -0.274 0.505-0.348 0.746-0.083 0.27-0.182 0.978-0.18 1.296v0.307l0.108-0.41c0.095-0.368 0.25-0.758 0.365-0.926 0.035-0.05 0.087-0.023 0.274 0.145 0.127 0.114 0.267 0.227 0.31 0.25 0.085 0.045 0.11 0 0.042-0.072-0.057-0.06-0.392-0.855-0.47-1.117-0.035-0.12-0.08-0.217-0.1-0.22zm-2.583 3.225c-0.725 0.02-1.372 0.593-1.573 1.445-0.088 0.374-0.082 0.66 0.022 1.062 0.2 0.792 0.655 1.322 1.36 1.59 0.098 0.038 0.3 0.058 0.55 0.05 0.34-7e-3 0.433-0.027 0.65-0.138 0.51-0.258 0.868-0.8 0.965-1.463 0.043-0.298 0.04-0.41-0.022-0.72-0.187-0.95-0.812-1.636-1.64-1.8-0.104-0.02-0.21-0.03-0.313-0.026zm5.087 0c-0.03 0-0.06 2e-3 -0.09 4e-3 -0.847 0.058-1.65 0.858-1.808 1.882-0.143 0.93 0.33 1.89 1.073 2.183 0.344 0.135 0.928 0.112 1.277-0.05 0.814-0.38 1.355-1.432 1.222-2.373-0.12-0.854-0.656-1.474-1.402-1.62a1.393 1.393 0 0 0-0.273-0.024zm-0.515 2.06c0.38 0.012 0.612 0.473 0.366 0.792-0.096 0.12-0.338 0.2-0.51 0.16-0.51-0.11-0.456-0.88 0.066-0.948a0.51 0.51 0 0 1 0.078-4e-3zm-3.968 0.01c0.2 0 0.24 0.02 0.354 0.146 0.192 0.215 0.165 0.6-0.05 0.714-0.19 0.1-0.332 0.12-0.467 0.065-0.33-0.14-0.424-0.52-0.192-0.78 0.113-0.126 0.155-0.144 0.356-0.144zm-1.514 6.556c0.25 0 0.498 2e-3 0.746 8e-3 0.49 0.01 0.683 0.22 0.683 0.712v1.162h-3e-3v1.14c-3e-3 0.416-0.192 0.633-0.608 0.646a25.8 25.8 0 0 1-1.622 0c-0.416-0.015-0.603-0.228-0.608-0.648-5e-3 -0.775-6e-3 -1.55 0-2.324 4e-3 -0.466 0.206-0.676 0.666-0.687 0.25-5e-3 0.497-8e-3 0.745-8e-3zm6.23 0c0.29 2e-3 0.577 0.01 0.865 0.026 0.348 0.02 0.53 0.23 0.534 0.58 0.013 0.817 0.016 1.636 4e-3 2.454-5e-3 0.39-0.21 0.59-0.608 0.604-0.54 0.02-1.08 0.02-1.62 0-0.428-0.015-0.606-0.23-0.61-0.666v-1.16h-3e-3c0-0.39-4e-3 -0.775 0-1.164 4e-3 -0.418 0.166-0.636 0.573-0.656 0.288-0.013 0.576-0.02 0.865-0.017zm-2.744 2e-3c0.29 0 0.583 3e-3 0.88 3e-3v0.632h-1.452c-0.31 0-0.333 0.023-0.333 0.34 0 0.6 6e-3 1.2-3e-3 1.8-3e-3 0.2 0.075 0.275 0.27 0.272 0.424-7e-3 0.847 0 1.272 0h0.267l3e-3 0.603c-0.05 7e-3 -0.098 0.02-0.146 0.02-0.527 2e-3 -1.054 5e-3 -1.58 0-0.516-5e-3 -0.716-0.21-0.716-0.722v-2.24c0-0.476 0.197-0.692 0.67-0.703 0.29-6e-3 0.577-7e-3 0.868-6e-3zm6.29 6e-3c0.358 0 0.72 5e-3 1.086 5e-3v0.622h-1.794c-0.26 0-0.286 0.027-0.286 0.292 6e-3 0.727-0.102 0.634 0.64 0.64 0.298 3e-3 0.6-3e-3 0.898 3e-3 0.433 0.01 0.632 0.206 0.64 0.633 4e-3 0.278 5e-3 0.557-4e-3 0.834-0.013 0.383-0.193 0.607-0.572 0.62-0.736 0.023-1.474 6e-3 -2.226 6e-3v-0.616h0.244c0.557 0 1.113-3e-3 1.668 2e-3 0.186 2e-3 0.272-0.072 0.264-0.26a5.38 5.38 0 0 1 0-0.44c7e-3 -0.188-0.078-0.258-0.266-0.254-0.4 0.01-0.804 6e-3 -1.206 2e-3 -0.533-6e-3 -0.722-0.203-0.722-0.737 0-0.242-3e-3 -0.483 4e-3 -0.724 0.012-0.387 0.19-0.608 0.568-0.62 0.353-0.01 0.707-0.01 1.065-0.01zm-12.84 0.02c0.41-3e-3 0.82 6e-3 1.237 6e-3v0.586c-0.08 5e-3 -0.156 0.014-0.232 0.014-0.438 2e-3 -0.877 5e-3 -1.315 0-0.175-2e-3 -0.25 0.072-0.25 0.25 6e-3 0.638 8e-3 1.274 0 1.91 0 0.196 0.083 0.257 0.265 0.256 0.438-5e-3 0.877-2e-3 1.316-2e-3h0.223v0.608c-0.65 0-1.284 0.02-1.917-8e-3 -0.342-0.014-0.51-0.227-0.514-0.568-0.01-0.826-0.01-1.653 0-2.48 3e-3 -0.318 0.157-0.544 0.448-0.557 0.25-0.014 0.51-0.01 0.737-0.016zm9.806 0.607c-0.357 7e-3 -0.715 5e-3 -1.072 0-0.177 0-0.248 0.08-0.246 0.255 4e-3 0.643 4e-3 1.285 0 1.927 0 0.16 0.07 0.23 0.22 0.23 0.38 3e-3 0.76 0 1.138 0 0.17 0 0.228-0.083 0.224-0.248-8e-3 -0.32 0-0.642-5e-3 -0.963 0-0.316-7e-3 -0.63 0-0.944h4e-3c5e-3 -0.19-0.077-0.26-0.262-0.258zm-7.282 3e-3c-0.168-2e-3 -0.237 0.076-0.235 0.24 5e-3 0.322 0 0.644 0 0.965 0 0.32 6e-3 0.64-4e-3 0.962h2e-3c-4e-3 0.17 0.067 0.245 0.23 0.245h1.117c0.158 0 0.235-0.068 0.234-0.24-6e-3 -0.642-4e-3 -1.283 0-1.926 0-0.16-0.056-0.248-0.228-0.246-0.373 5e-3 -0.745 3e-3 -1.117 0z"/></svg>
