<?xml version="1.0" encoding="utf-8"?>
<!-- Generator: Adobe Illustrator 24.1.1, SVG Export Plug-In . SVG Version: 6.00 Build 0)  -->
<svg version="1.1" id="Layer_1" xmlns="http://www.w3.org/2000/svg" xmlns:xlink="http://www.w3.org/1999/xlink" x="0px" y="0px"
	 viewBox="0 0 512 512" style="enable-background:new 0 0 512 512;" xml:space="preserve">
<g>
	<path d="M256,0C115.7,0,2.2,114.6,2.2,256S115.7,512,256,512c140.2,0,253.8-114.6,253.8-256S396.2,0,256,0L256,0z M256,11.3
		c64.8,0,125.7,25.5,171.6,71.7c45.7,46,71.2,108.3,71.1,173.1c0,65.3-25.3,126.8-71.1,173.1C382.3,475,320.5,500.8,256,500.8
		c-64.5,0.1-126.3-25.7-171.6-71.7c-45.7-46-71.3-108.3-71.2-173.1c0-65.3,25.3-126.8,71.1-173.1C129.6,36.9,191.5,11.1,256,11.3z
		 M243.3,101.3c-41.3,11.1-79.6,32.3-130.6,90.8C61.7,250.7,71.3,299,71.3,299s14.1-33.3,47.9-68.3c16.1-16.6,28-22.2,36.3-22.2
		c7.3-0.4,13.5,5.5,13.5,12.8v118.8c0,11.8-7.6,14.3-14.6,14.2c-5.9-0.1-11.4-2.2-11.4-2.2c34.8,50.5,117.9,57.6,117.9,57.6l36.5-39
		l0.8,0.8l33.4,28.5c61.2-36.3,90.7-103.7,90.7-103.7c-27.3,28.8-44.7,35.6-55,35.6c-9.2-0.1-12.8-5.4-12.8-5.4
		c-0.5-2.5-1.3-38.7-1.7-74.8c-0.3-37.4,0-74.9,1.8-75c10.6-19.8,44.3-59.8,44.3-59.8c-62.9,12.4-97.2,53.7-97.2,53.7
		c-10.2-8-30.8-6.7-30.8-6.7c9.7,5.3,19.3,20.8,19.3,33.7v126.3c0,0-21.1,18.6-37.3,18.6c-9.7,0-15.6-5.3-18.8-9.6
		c-1.3-1.7-2.3-3.5-3.2-5.5v-156c-2.3,1.7-5,2.6-7.7,2.7c-3.5,0-7.1-1.7-9.5-6.8c-1.8-3.8-3-9.6-3-18
		C210.8,120.4,243.3,101.3,243.3,101.3L243.3,101.3z"/>
</g>
</svg>
